<?xml version="1.0" encoding="UTF-8"?>
<svg id="Layer_1" xmlns="http://www.w3.org/2000/svg" xmlns:xlink="http://www.w3.org/1999/xlink" version="1.1" viewBox="0 0 425.2 425.2">
  <!-- Generator: Adobe Illustrator 30.0.0, SVG Export Plug-In . SVG Version: 2.1.1 Build 123)  -->
  <defs>
    <style>
      .st0 {
        fill: url(#linear-gradient2);
      }

      .st1 {
        fill: url(#linear-gradient1);
      }

      .st2 {
        fill: url(#linear-gradient3);
      }

      .st3 {
        fill: url(#linear-gradient4);
      }

      .st4 {
        fill: url(#linear-gradient);
      }
    </style>
    <linearGradient id="linear-gradient" x1="74.55" y1="230.8" x2="137.61" y2="194.4" gradientUnits="userSpaceOnUse">
      <stop offset="0" stop-color="#a08228"/>
      <stop offset=".37" stop-color="#cfae58"/>
      <stop offset=".66" stop-color="#fceeb6"/>
      <stop offset="1" stop-color="#b48931"/>
    </linearGradient>
    <linearGradient id="linear-gradient1" x1="144.56" y1="226.07" x2="189.92" y2="199.88" xlink:href="#linear-gradient"/>
    <linearGradient id="linear-gradient2" x1="191.97" y1="224.98" x2="239.83" y2="197.35" xlink:href="#linear-gradient"/>
    <linearGradient id="linear-gradient3" x1="248.68" y1="226.07" x2="294.05" y2="199.88" xlink:href="#linear-gradient"/>
    <linearGradient id="linear-gradient4" x1="297.95" y1="228.19" x2="352.11" y2="196.93" xlink:href="#linear-gradient"/>
  </defs>
  <path class="st4" d="M137.98,230.15h-12.88v-22.33l-13.62,22.33h-10.8s-13.62-22.33-13.62-22.33v22.33h-12.89v-35.11h22.19l9.71,13.73,9.75-13.73h22.15v35.11Z"/>
  <path class="st1" d="M189.06,230.08h-42.19v-35.03h40.26v8.67h-25.56v5.49h21.61v6.74h-21.61v5.47h27.49v8.67Z"/>
  <path class="st0" d="M218.35,230.08h-23.44v-35.03h23.44c9.59,0,16.48,1.34,20.68,4.03,3.38,2.17,5.31,5.11,5.79,8.84.21,1.61.32,3.17.32,4.66s-.1,3.03-.31,4.65c-.2,1.62-.74,3.19-1.62,4.71-.88,1.52-2.27,2.89-4.19,4.11-1.91,1.22-4.53,2.2-7.86,2.93-3.33.73-7.6,1.1-12.8,1.1ZM216.96,221.41c7.47,0,11.69-1.89,12.67-5.66.26-1.06.39-2.12.39-3.17s-.13-2.14-.4-3.19c-.27-1.05-.84-2-1.71-2.86-.87-.85-2.18-1.54-3.92-2.05-1.74-.51-4.08-.77-7.03-.77h-7.35v17.7h7.35Z"/>
  <path class="st2" d="M293.18,230.08h-42.19v-35.03h40.26v8.67h-25.56v5.49h21.61v6.74h-21.61v5.47h27.49v8.67Z"/>
  <path class="st3" d="M351.02,230.08h-17.48l-19.8-20.86v20.86h-14.7v-35.03h17.48l19.8,20.93v-20.93h14.7v35.03Z"/>
</svg>